:SAMPLES-PER-SECOND 30
:FRAME-RANGE 1-3535
:FULLY-SPECIFIED
:DEGREES
1768
root  46.5488 38.6254 1.22626 -1.69969 -61.2836 7.11157
RightUpLeg  10.2556 -4.9328 -12.2975
RightLeg  9.9577 4.58335 -2.03722
RightFoot  -18.7733 0.894266 15.6514
RightToes  1.22775e-009 1.2921e-014 -6.02303e-014
Spine  9.33656 -0.158557 -1.58075
Spine1  -0.024314 0.250998 -3.42995
HEad  -10.4589 -33.7251 4.95651
LeftShoulder1  1.20626 0.0649283 -28.9898
LeftArm  5.11656 21.701 -26.6812
LeftForeArm  10.1421 -2.286 -17.3512
LeftHand  0.368215 -1.0175 -6.60176
RightShoulder  7.2805 9.46461 49.1834
RightArm  18.68 2.52137 15.1723
RightForeArm  9.99894 40.963 9.08232
RightHand  0.228291 4.95311 2.25668
LeftUpLeg  -23.6756 8.64308 3.69466
LeftLeg  3.97745 17.6099 -3.53669
LeftFoot  6.69943 1.06881 -6.98472
LeftToes  2.52163e-011 5.65494e-011 -1.09494e-012
1769
root  45.7542 38.1768 2.76748 -4.82651 -60.5101 9.21912
RightUpLeg  11.7926 2.39277 -14.1277
RightLeg  15.1019 -0.0317144 -0.972534
RightFoot  -19.7173 1.35057 20.0938
RightToes  1.22775e-009 1.2921e-014 -6.02303e-014
Spine  10.0892 0.0743399 -3.62803
Spine1  0.0135461 0.0904531 -2.82964
HEad  -9.5279 -34.544 4.34053
LeftShoulder1  1.1669 0.219682 -29.4507
LeftArm  5.03734 21.7722 -26.4319
LeftForeArm  9.72856 -0.842889 -17.7521
LeftHand  0.344449 -0.707336 -6.52086
RightShoulder  7.00119 8.91461 49.3938
RightArm  18.7246 2.24871 14.2688
RightForeArm  9.24997 39.2068 8.5651
RightHand  0.170859 5.02526 1.59748
LeftUpLeg  -25.3276 13.683 -1.28661
LeftLeg  12.4479 10.1167 -1.13714
LeftFoot  9.30552 0.319081 -2.06391
LeftToes  2.52163e-011 5.65494e-011 -1.09494e-012
1770
root  44.9818 37.7697 4.20818 -7.87744 -58.4404 11.4507
RightUpLeg  11.3029 5.16545 -16.3662
RightLeg  24.187 -0.494014 -0.460557
RightFoot  -18.5297 1.56396 26.4745
RightToes  1.22775e-009 1.2921e-014 -6.02303e-014
Spine  11.152 0.208159 -6.09574
Spine1  -0.146363 -0.41295 -1.71383
HEad  -8.80995 -36.0374 4.50052
LeftShoulder1  1.22416 0.141874 -30.3452
LeftArm  6.798 19.351 -26.3047
LeftForeArm  7.3687 0.495224 -18.3243
LeftHand  0.332537 -0.393193 -6.67505
RightShoulder  6.70845 8.17882 50.3067
RightArm  20.0239 2.29477 13.5913
RightForeArm  7.24181 34.3131 7.25795
RightHand  0.0620272 5.34679 0.355578
LeftUpLeg  -27.6981 18.6028 -7.24295
LeftLeg  22.1259 2.06755 1.2631
LeftFoot  2.87607 0.221149 -1.91345
LeftToes  2.52163e-011 5.65494e-011 -1.09494e-012
1771
root  44.279 37.7297 5.56799 -9.19832 -58.3324 11.9757
RightUpLeg  7.30966 7.19555 -17.3921
RightLeg  35.7138 -1.17886 -1.16361
RightFoot  -10.9348 -0.175898 27.8478
RightToes  1.22775e-009 1.2921e-014 -6.02303e-014
Spine  11.2018 0.56649 -5.45106
Spine1  0.89817 0.292288 -3.76724
HEad  -8.02864 -37.0273 4.17624
LeftShoulder1  1.33303 -0.160729 -30.3132
LeftArm  5.51715 16.4258 -27.3782
LeftForeArm  7.81701 1.49566 -18.3392
LeftHand  0.355408 -0.321505 -7.23473
RightShoulder  7.11375 8.74502 50.8694
RightArm  23.9385 1.87471 14.033
RightForeArm  1.31322 26.647 5.66361
RightHand  -0.0277156 5.75787 -0.613837
LeftUpLeg  -26.3701 20.3123 -8.22369
LeftLeg  25.9531 0.667574 0.704607
LeftFoot  -1.24597 0.069698 -0.704163
LeftToes  2.52163e-011 5.65494e-011 -1.09494e-012
1772
root  43.5494 37.8462 6.86772 -9.98718 -58.7233 12.5514
RightUpLeg  0.542402 9.68403 -17.2741
RightLeg  48.245 -3.46804 -4.48593
RightFoot  1.8086 -1.81 15.7207
RightToes  1.22775e-009 1.2921e-014 -6.02303e-014
Spine  10.9891 0.630122 -5.71887
Spine1  0.99569 0.435009 -4.26871
HEad  -7.17214 -36.6262 3.38664
LeftShoulder1  1.36284 -0.23349 -30.4046
LeftArm  3.36404 14.8409 -28.4131
LeftForeArm  9.87721 0.531429 -17.8641
LeftHand  0.390208 -0.516998 -7.65648
RightShoulder  7.81995 9.84803 51.2869
RightArm  26.6523 2.4198 14.5618
RightForeArm  -2.80266 18.521 8.45521
RightHand  0.000906716 5.18572 -0.299407
LeftUpLeg  -24.3054 21.1116 -8.84036
LeftLeg  27.321 0.522564 0.650995
LeftFoot  -4.47701 0.0492518 -0.371804
LeftToes  2.52163e-011 5.65494e-011 -1.09494e-012
